<svg width="19" height="20" viewBox="0 0 19 20" fill="none" xmlns="http://www.w3.org/2000/svg">
<path fill-rule="evenodd" clip-rule="evenodd" d="M18.9997 10.2088C18.9997 9.55706 18.9412 8.93036 18.8325 8.32874H10.1758V11.8842H15.1225C14.9094 13.0331 14.2618 14.0066 13.2884 14.6584V16.9646H16.2589C17.9969 15.3644 18.9997 13.0081 18.9997 10.2088Z" fill="#4285F4"/>
<path fill-rule="evenodd" clip-rule="evenodd" d="M10.1758 19.1915C12.6575 19.1915 14.7381 18.3685 16.2589 16.9647L13.2884 14.6584C12.4653 15.2099 11.4125 15.5358 10.1758 15.5358C7.78182 15.5358 5.75551 13.9189 5.03272 11.7464H1.96191V14.1278C3.47434 17.1318 6.58275 19.1915 10.1758 19.1915Z" fill="#34A853"/>
<path fill-rule="evenodd" clip-rule="evenodd" d="M5.03283 11.7464C4.849 11.1949 4.74455 10.6058 4.74455 9.99996C4.74455 9.39416 4.849 8.80507 5.03283 8.25357V5.87213H1.96202C1.3395 7.11299 0.984375 8.51679 0.984375 9.99996C0.984375 11.4831 1.3395 12.8869 1.96202 14.1278L5.03283 11.7464Z" fill="#FBBC05"/>
<path fill-rule="evenodd" clip-rule="evenodd" d="M10.1758 4.46419C11.5253 4.46419 12.7369 4.92795 13.6895 5.83875L16.3258 3.20245C14.734 1.71927 12.6533 0.808472 10.1758 0.808472C6.58275 0.808472 3.47434 2.86821 1.96191 5.87217L5.03272 8.25361C5.75551 6.08107 7.78182 4.46419 10.1758 4.46419Z" fill="#EA4335"/>
</svg>
